OpenSim_Sub05_CSStiffKnee_GRF.mot
version=1
nRows=35
nColumns=19
inDegrees=no
endheader
time	lFx	lFy	lFz	lCOPx	lCOPy	lCOPz	rFx	rFy	rFz	rCOPx	rCOPy	rCOPz	lMx	lMy	lMz	rMx	rMy	rMz
0	1.42376685	-2.05905760	1.59555580	-0.00000000	0	0.00000000	-0.01133977	-0.66004800	-0.21245478	0.00000000	0	-0.00000000	0	0.00000000	0	0	-0.00000000	-0.00000000
0.01000000	1.45552189	-2.00825574	1.67736571	-0.00000000	0	0.00000000	0.03506279	-0.55905018	-0.20570194	-0.00000000	0	-0.00000000	0	0.00000000	0	0	-0.00000000	-0.00000000
0.02000000	1.48569331	-1.93428954	1.68656901	-0.00000000	0	0.00000000	0.04114377	-0.49230123	-0.18428033	-0.00000000	0	0.00000000	0	0.00000000	0	0	-0.00000000	-0.00000000
0.03000000	1.50992969	-1.91246865	1.66073562	0.00000000	0	-0.00000000	0.01768033	-0.45816765	-0.17173007	-0.00000000	0	0.00000000	0	-0.00000000	0	0	-0.00000000	-0.00000000
0.04000000	1.51290166	-1.94382690	1.62657353	0.00000000	0	-0.00000000	-0.00677374	-0.44799743	-0.17510308	-0.00000000	0	0.00000000	0	-0.00000000	0	0	-0.00000000	-0.00000000
0.05000000	1.50674546	-1.96626289	1.61180446	0.00000000	0	-0.00000000	-0.01290891	-0.46959527	-0.18112234	-0.00000000	0	0.00000000	0	-0.00000000	0	0	0.00000000	0.00000000
0.06000000	1.49009010	-1.99026621	1.62582853	0.00000000	0	-0.00000000	-0.00276359	-0.50963224	-0.16735461	0.00000000	0	-0.00000000	0	-0.00000000	0	0	0.00000000	0.00000000
0.07000000	1.47166739	-2.00954329	1.65221988	-0.00000000	0	0.00000000	0.01454371	-0.52238963	-0.14803050	0.00000000	0	-0.00000000	0	0.00000000	0	0	0.00000000	0.00000000
0.08000000	1.47221741	-2.04243191	1.67178327	-0.00000000	0	0.00000000	0.02080496	-0.51138559	-0.14667394	0.00000000	0	-0.00000000	0	0.00000000	0	0	0.00000000	0.00000000
0.09000000	1.48543097	-2.12743138	1.66607464	-0.00000000	0	0.00000000	0.02783924	-0.52303374	-0.15287535	0.00000000	0	-0.00000000	0	0.00000000	0	0	0.00000000	0.00000000
0.10000000	1.50352570	-2.22233979	1.65002154	-0.00000000	0	0.00000000	0.05461354	-0.53849451	-0.15719213	0.00000000	0	-0.00000000	0	0.00000000	0	0	-0.00000000	-0.00000000
0.11000000	1.50846755	-2.27548270	1.62593841	-0.00000000	0	0.00000000	0.08593251	-0.52990070	-0.16425938	-0.00000000	0	0.00000000	0	0.00000000	0	0	-0.00000000	-0.00000000
0.12000000	1.49217123	-2.27409278	1.60600728	0.00000000	0	-0.00000000	0.08118837	-0.50427147	-0.17335508	-0.00000000	0	0.00000000	0	-0.00000000	0	0	-0.00000000	-0.00000000
0.13000000	1.46691300	-2.22354130	1.59584043	0.00000000	0	-0.00000000	0.04042868	-0.43855395	-0.18388509	-0.00000000	0	0.00000000	0	-0.00000000	0	0	-0.00000000	-0.00000000
0.14000000	1.46085653	-2.11455865	1.59562896	0.00000000	0	-0.00000000	0.00093515	-0.36461251	-0.19478482	-0.00000000	0	0.00000000	0	-0.00000000	0	0	0.00000000	0.00000000
0.15000000	1.47735054	-1.99931907	1.60349037	0.00000000	0	-0.00000000	0.00034585	-0.31492375	-0.19968991	-0.00000000	0	0.00000000	0	-0.00000000	0	0	0.00000000	0.00000000
0.16000000	1.49771066	-1.97169645	1.60694937	0.00000000	0	-0.00000000	0.03846994	-0.26304381	-0.19805214	0.00000000	0	-0.00000000	0	-0.00000000	0	0	0.00000000	0.00000000
0.17000000	1.51077900	-2.03449713	1.60560447	-0.00000000	0	0.00000000	0.07381666	-0.26024093	-0.18504196	0.00000000	0	-0.00000000	0	0.00000000	0	0	0.00000000	0.00000000
0.18000000	1.52493058	-2.12587475	1.60613960	-0.00000000	0	0.00000000	0.08305183	-0.35222695	-0.17217817	0.00000000	0	-0.00000000	0	0.00000000	0	0	0.00000000	0.00000000
0.19000000	1.54656637	-2.20263534	1.60512432	-0.00000000	0	0.00000000	0.06134147	-0.49562590	-0.16933733	0.00000000	0	-0.00000000	0	0.00000000	0	0	-0.00000000	-0.00000000
0.20000000	1.56198663	-2.23424274	1.58420365	-0.00000000	0	0.00000000	0.02732065	-0.58212822	-0.17811996	-0.00000000	0	0.00000000	0	0.00000000	0	0	-0.00000000	-0.00000000
0.21000000	1.55469498	-2.23307438	1.54433905	0.00000000	0	-0.00000000	0.00098527	-0.58371552	-0.20216905	-0.00000000	0	0.00000000	0	-0.00000000	0	0	-0.00000000	-0.00000000
0.22000000	1.52763324	-2.24881854	1.50215535	0.00000000	0	-0.00000000	0.00224325	-0.56334169	-0.22428520	-0.00000000	0	0.00000000	0	-0.00000000	0	0	-0.00000000	-0.00000000
0.23000000	1.48445812	-2.28001331	1.46841524	0.00000000	0	-0.00000000	0.02173238	-0.52475876	-0.22702783	-0.00000000	0	0.00000000	0	-0.00000000	0	0	-0.00000000	-0.00000000
0.24000000	1.45771457	-2.30669266	1.45498701	0.00000000	0	-0.00000000	0.03902265	-0.47088267	-0.21339734	-0.00000000	0	0.00000000	0	-0.00000000	0	0	0.00000000	0.00000000
0.25000000	1.47138858	-2.32631172	1.46092817	0.00000000	0	-0.00000000	0.04316481	-0.40048034	-0.19599094	0.00000000	0	-0.00000000	0	-0.00000000	0	0	0.00000000	0.00000000
0.26000000	1.49842969	-2.29567342	1.48487688	-0.00000000	0	0.00000000	0.03671902	-0.32891211	-0.17200623	0.00000000	0	-0.00000000	0	0.00000000	0	0	0.00000000	0.00000000
0.27000000	1.51481188	-2.20564746	1.51671015	-0.00000000	0	0.00000000	0.02758512	-0.30161172	-0.14667404	0.00000000	0	-0.00000000	0	0.00000000	0	0	0.00000000	0.00000000
0.28000000	1.51466536	-2.12368197	1.54080957	-0.00000000	0	0.00000000	0.01793800	-0.36284236	-0.14080411	0.00000000	0	-0.00000000	0	0.00000000	0	0	0.00000000	0.00000000
0.29000000	1.50318080	-2.10310318	1.55615471	-0.00000000	0	0.00000000	0.00394692	-0.45071325	-0.15898762	0.00000000	0	-0.00000000	0	0.00000000	0	0	-0.00000000	-0.00000000
0.30000000	1.49318276	-2.12271947	1.58503376	-0.00000000	0	0.00000000	-0.00587573	-0.48908230	-0.17269426	-0.00000000	0	0.00000000	0	0.00000000	0	0	-0.00000000	-0.00000000
0.31000000	1.48618005	-2.13306721	1.62221098	0.00000000	0	-0.00000000	-0.00108202	-0.47734181	-0.17439759	-0.00000000	0	0.00000000	0	-0.00000000	0	0	-0.00000000	-0.00000000
0.32000000	1.49353374	-2.14490908	1.63959784	0.00000000	0	-0.00000000	0.01454660	-0.44578876	-0.18989808	-0.00000000	0	0.00000000	0	-0.00000000	0	0	-0.00000000	-0.00000000
0.33000000	1.50624327	-2.18522072	1.62362615	0.00000000	0	-0.00000000	0.02144198	-0.48121941	-0.22743549	-0.00000000	0	0.00000000	0	-0.00000000	0	0	0.00000000	0.00000000
0.34000000	1.50499954	-2.22969286	1.59596158	0.00000000	0	-0.00000000	0.01003867	-0.55968573	-0.25872072	0.00000000	0	-0.00000000	0	-0.00000000	0	0	0.00000000	0.00000000
